<svg width="150" height="151" viewBox="0 0 150 151" fill="none" xmlns="http://www.w3.org/2000/svg">
<path d="M57.7734 71.3984C57.7734 72.0822 58.0451 72.738 58.5286 73.2214C59.012 73.7049 59.6678 73.9766 60.3516 73.9766C61.0353 73.9766 61.6911 73.7049 62.1746 73.2214C62.6581 72.738 62.9297 72.0822 62.9297 71.3984C62.9297 70.7147 62.6581 70.0589 62.1746 69.5754C61.6911 69.0919 61.0353 68.8203 60.3516 68.8203C59.6678 68.8203 59.012 69.0919 58.5286 69.5754C58.0451 70.0589 57.7734 70.7147 57.7734 71.3984Z" fill="#2A306F"/>
<path d="M58.8281 71.3984C58.8281 72.2187 59.5312 72.9219 60.3516 72.9219C61.1719 72.9219 61.875 72.2187 61.875 71.3984C61.875 70.5781 61.1719 69.875 60.3516 69.875C59.5312 69.875 58.8281 70.4609 58.8281 71.3984Z" fill="#2A306F"/>
<path d="M67.5 71.3984C67.5 71.737 67.5667 72.0723 67.6962 72.385C67.8258 72.6978 68.0157 72.982 68.2551 73.2214C68.4945 73.4608 68.7787 73.6508 69.0915 73.7803C69.4043 73.9099 69.7396 73.9766 70.0781 73.9766C70.4167 73.9766 70.7519 73.9099 71.0647 73.7803C71.3775 73.6508 71.6617 73.4608 71.9011 73.2214C72.1405 72.982 72.3304 72.6978 72.46 72.385C72.5896 72.0723 72.6563 71.737 72.6563 71.3984C72.6563 71.0599 72.5896 70.7246 72.46 70.4118C72.3304 70.099 72.1405 69.8148 71.9011 69.5754C71.6617 69.336 71.3775 69.1461 71.0647 69.0166C70.7519 68.887 70.4167 68.8203 70.0781 68.8203C69.7396 68.8203 69.4043 68.887 69.0915 69.0166C68.7787 69.1461 68.4945 69.336 68.2551 69.5754C68.0157 69.8148 67.8258 70.099 67.6962 70.4118C67.5667 70.7246 67.5 71.0599 67.5 71.3984Z" fill="#2A306F"/>
<path d="M68.5547 71.3984C68.5547 72.2188 69.2578 72.9219 70.0781 72.9219C70.8984 72.9219 71.6016 72.2188 71.6016 71.3984C71.6016 70.5781 70.8984 69.875 70.0781 69.875C69.2578 69.875 68.5547 70.4609 68.5547 71.3984ZM79.9219 73.9766C78.5156 73.9766 77.3438 72.8047 77.3438 71.3984C77.3438 69.9922 78.5156 68.8203 79.9219 68.8203C81.3281 68.8203 82.5 69.9922 82.5 71.3984C82.5 72.8047 81.3281 73.9766 79.9219 73.9766Z" fill="#2A306F"/>
<path d="M78.2812 71.3985C78.2812 72.2188 78.9844 72.922 79.8047 72.922C80.625 72.922 81.3281 72.2188 81.3281 71.3985C81.3281 70.5782 80.625 69.8751 79.8047 69.8751C78.9844 69.7579 78.2812 70.461 78.2812 71.3985Z" fill="#2A306F"/>
<path d="M87.0703 71.3984C87.0703 72.0822 87.3419 72.738 87.8254 73.2214C88.3089 73.7049 88.9647 73.9766 89.6484 73.9766C90.3322 73.9766 90.9879 73.7049 91.4714 73.2214C91.9549 72.738 92.2266 72.0822 92.2266 71.3984C92.2266 70.7147 91.9549 70.0589 91.4714 69.5754C90.9879 69.0919 90.3322 68.8203 89.6484 68.8203C88.9647 68.8203 88.3089 69.0919 87.8254 69.5754C87.3419 70.0589 87.0703 70.7147 87.0703 71.3984Z" fill="#2A306F"/>
<path d="M88.1249 71.3985C88.1249 72.2188 88.828 72.922 89.6483 72.922C90.4686 72.922 91.1717 72.2188 91.1717 71.3985C91.1717 70.5782 90.4686 69.8751 89.6483 69.8751C88.828 69.7579 88.1249 70.461 88.1249 71.3985ZM96.2108 129.641C94.453 129.641 92.6952 129.172 91.1717 128.234C86.7186 125.422 85.3124 119.563 88.1249 115.227C89.8827 112.414 92.9295 110.774 96.2108 110.774C97.9686 110.774 99.7264 111.242 101.25 112.18C103.359 113.469 104.883 115.578 105.469 118.039C106.055 120.5 105.586 123.078 104.297 125.188C102.539 128 99.6092 129.641 96.2108 129.641ZM93.2811 125.422C94.1014 124.25 95.9764 121.555 96.6795 120.383C97.3827 119.328 98.9061 116.399 99.6092 115.109L99.492 114.992L99.2577 114.875C98.4374 116.047 96.5624 118.742 95.8592 119.914C95.1561 120.969 93.6327 123.899 92.9295 125.188L93.0467 125.305L93.2811 125.422Z" fill="#2A306F"/>
<path d="M100.781 113C96.7967 110.539 91.6404 111.711 89.1795 115.695C86.7186 119.68 87.8905 124.836 91.8748 127.297C95.8592 129.758 101.015 128.586 103.476 124.602C105.937 120.734 104.765 115.461 100.781 113ZM93.6326 126.711L92.4608 126.359L91.6404 125.422C91.6404 125.422 94.1014 120.852 95.0389 119.445C95.9764 118.039 98.9061 113.82 98.9061 113.82L100.078 114.172L100.898 115.109C100.898 115.109 98.4373 119.68 97.4998 121.086C96.6795 122.492 93.6326 126.711 93.6326 126.711ZM53.6717 129.641C52.2654 129.641 50.9764 129.406 49.8045 128.82C47.4608 127.766 45.7029 125.891 44.8826 123.547C44.0623 121.203 44.0623 118.625 45.117 116.281C46.6404 112.883 50.0389 110.656 53.7889 110.656C55.1951 110.656 56.4842 110.891 57.6561 111.477C62.4608 113.586 64.5701 119.211 62.3436 124.016C60.8201 127.531 57.4217 129.641 53.6717 129.641ZM51.4451 125.773C52.1483 124.484 53.6717 121.555 54.1405 120.383C54.7264 119.211 55.8983 116.164 56.367 114.758L56.2498 114.641H56.0154C55.3123 115.93 53.7889 118.859 53.3201 120.031C52.7342 121.203 51.5623 124.25 51.0936 125.656L51.3279 125.773H51.4451Z" fill="#2A306F"/>
<path d="M57.1877 112.531C52.969 110.656 47.9299 112.531 45.9377 116.75C44.0627 120.969 45.9377 126.008 50.1565 128C54.3752 129.875 59.4143 128 61.4065 123.781C63.3987 119.445 61.5237 114.406 57.1877 112.531ZM52.0315 126.945L50.8596 126.711L49.9221 125.89C49.9221 125.89 51.7971 121.086 52.5002 119.562C53.2034 118.039 55.6643 113.469 55.6643 113.469L56.8362 113.703L57.7737 114.523C57.7737 114.523 55.8987 119.328 55.1956 120.851C54.3752 122.375 52.0315 126.945 52.0315 126.945Z" fill="#2A306F"/>
<path d="M86.1328 148.625C85.3125 148.625 84.6094 147.922 84.6094 147.102V145.461H65.3906V147.102C65.3906 147.922 64.6875 148.625 63.8672 148.625H47.3438C46.5234 148.625 45.8203 147.922 45.8203 147.102V145.461H33.9844C30.4687 145.461 27.6562 142.648 27.6562 139.133V10.9297C27.6562 7.41406 30.4687 4.60156 33.9844 4.60156H56.6016V3.89844C56.6016 3.07813 57.3047 2.375 58.125 2.375H91.875C92.6953 2.375 93.3984 3.07813 93.3984 3.89844V4.48438H116.016C119.531 4.48438 122.344 7.29688 122.344 10.8125V138.898C122.344 142.414 119.531 145.227 116.016 145.227H104.18V146.867C104.18 147.688 103.477 148.391 102.656 148.391H86.1328V148.625ZM34.2188 132.922C34.2188 135.852 36.6797 138.312 39.6094 138.312H110.273C113.203 138.312 115.664 135.852 115.664 132.922V94.0156H34.2188V132.922ZM115.781 91.2031V16.9062C115.781 13.9766 113.32 11.5156 110.391 11.5156H39.6094C36.6797 11.5156 34.2188 13.9766 34.2188 16.9062V91.0859H115.781V91.2031Z" fill="#2A306F"/>
</svg>
