<svg width="150" height="145" viewBox="0 0 150 145" fill="none" xmlns="http://www.w3.org/2000/svg">
<path d="M137.913 130.688C137.913 124.706 126.999 107.987 126.999 107.987C126.999 107.987 115.92 124.706 115.92 130.688C115.92 136.658 120.846 141.5 126.918 141.5C132.987 141.5 137.913 136.658 137.913 130.688ZM58.998 37.013H37.005V15.332H43.002V3.5H3V15.332H9V48.842C9 57.554 16.164 64.613 24.999 64.613H58.998V70.529H71.001V31.103H58.998V37.013ZM140.994 86.297V52.787C140.994 44.078 133.833 37.016 125.007 37.016H91.002V31.106H78.999V70.535H91.002V64.616H112.998V86.297H107.007V98.129H147V86.297H140.994Z" stroke="#2A306F" stroke-width="7"/>
</svg>
