<svg width="150" height="151" viewBox="0 0 150 151" fill="none" xmlns="http://www.w3.org/2000/svg">
<path d="M97.5708 97.0576C96.9238 96.435 97.1802 95.5928 98.1567 95.1777C99.1333 94.7627 100.439 94.9336 101.099 95.5439C105.713 99.9385 103.491 103.503 101.355 106.921C99.7436 109.509 98.1934 111.987 101.05 114.477C101.746 115.087 101.538 115.93 100.598 116.369C99.6582 116.809 98.3276 116.687 97.6318 116.076C93.396 112.377 95.3613 109.216 97.4243 105.92C99.1455 103.149 100.952 100.268 97.5708 97.0576ZM17.7856 68.6641H107.69C108.862 68.6641 109.814 69.6162 109.814 70.7881V85.7539H139.27C141.052 85.7539 142.676 85.0215 143.848 83.8496C145.02 82.6777 145.752 81.0542 145.752 79.272V45.0923C145.752 43.3101 145.02 41.6865 143.848 40.5146C142.676 39.3428 141.052 38.6104 139.27 38.6104H10.7422C8.95996 38.6104 7.33643 39.3428 6.16455 40.5146C4.98047 41.6865 4.24805 43.3101 4.24805 45.0923V79.272C4.24805 81.0542 4.98047 82.6777 6.15234 83.8496C7.32422 85.0215 8.94775 85.7539 10.73 85.7539H15.6494V70.7881C15.6616 69.6162 16.6138 68.6641 17.7856 68.6641ZM105.566 72.9121H19.9097V85.229H105.566V72.9121ZM18.5669 51.0005C17.395 51.0005 16.4429 50.0483 16.4429 48.8765C16.4429 47.7046 17.395 46.7524 18.5669 46.7524H132.996C134.167 46.7524 135.12 47.7046 135.12 48.8765C135.12 50.0483 134.167 51.0005 132.996 51.0005H18.5669ZM120.337 73.4004C121.997 73.4004 123.34 74.7432 123.34 76.4033C123.34 78.0635 121.997 79.4062 120.337 79.4062C118.677 79.4062 117.334 78.0635 117.334 76.4033C117.334 74.7432 118.689 73.4004 120.337 73.4004ZM132.874 73.4004C134.534 73.4004 135.876 74.7432 135.876 76.4033C135.876 78.0635 134.534 79.4062 132.874 79.4062C131.213 79.4062 129.871 78.0635 129.871 76.4033C129.871 74.7432 131.213 73.4004 132.874 73.4004ZM10.7422 34.3501H139.27C142.224 34.3501 144.91 35.5586 146.851 37.4995C148.792 39.4404 150 42.126 150 45.0801V79.272C150 82.2261 148.792 84.9116 146.851 86.8525C144.91 88.7934 142.224 90.0019 139.27 90.0019H10.7422C7.78809 90.0019 5.10254 88.7934 3.16162 86.8525C1.2085 84.9116 0 82.2261 0 79.272V45.0923C0 42.1382 1.2085 39.4526 3.14941 37.5117C5.10254 35.5586 7.78809 34.3501 10.7422 34.3501ZM18.5669 60.9126C17.395 60.9126 16.4429 59.9604 16.4429 58.7886C16.4429 57.6167 17.395 56.6645 18.5669 56.6645H132.996C134.167 56.6645 135.12 57.6167 135.12 58.7886C135.12 59.9604 134.167 60.9126 132.996 60.9126H18.5669ZM26.0864 97.0576C25.4395 96.435 25.6958 95.5928 26.6724 95.1777C27.6489 94.7627 28.9551 94.9336 29.6143 95.5439C34.2285 99.9385 32.0068 103.503 29.8706 106.921C28.2593 109.509 26.709 111.987 29.5654 114.477C30.2612 115.087 30.0537 115.93 29.1138 116.369C28.1738 116.809 26.8433 116.687 26.1475 116.076C21.9116 112.377 23.877 109.216 25.9399 105.92C27.6611 103.149 29.4556 100.268 26.0864 97.0576ZM43.9575 97.0576C43.3105 96.435 43.5669 95.5928 44.5435 95.1777C45.52 94.7627 46.8262 94.9336 47.4854 95.5439C52.0996 99.9385 49.8779 103.503 47.7417 106.921C46.1304 109.509 44.5801 111.987 47.4365 114.477C48.1323 115.087 47.9248 115.93 46.9849 116.369C46.0449 116.809 44.7144 116.687 44.0186 116.076C39.7827 112.377 41.748 109.216 43.811 105.92C45.5322 103.149 47.3267 100.268 43.9575 97.0576ZM61.8286 97.0576C61.1816 96.435 61.438 95.5928 62.4146 95.1777C63.3911 94.7627 64.6973 94.9336 65.3564 95.5439C69.9707 99.9385 67.749 103.503 65.6128 106.921C64.0015 109.509 62.4512 111.987 65.3076 114.477C66.0034 115.087 65.7959 115.93 64.856 116.369C63.916 116.809 62.5854 116.687 61.8896 116.076C57.6538 112.377 59.6191 109.216 61.6821 105.92C63.4033 103.149 65.21 100.268 61.8286 97.0576ZM79.6997 97.0576C79.0527 96.435 79.3091 95.5928 80.2856 95.1777C81.2622 94.7627 82.5684 94.9336 83.2275 95.5439C87.8418 99.9385 85.6201 103.503 83.4839 106.921C81.8726 109.509 80.3223 111.987 83.1787 114.477C83.8745 115.087 83.667 115.93 82.727 116.369C81.7871 116.809 80.4565 116.687 79.7607 116.076C75.5249 112.377 77.5024 109.216 79.5532 105.92C81.2744 103.149 83.081 100.268 79.6997 97.0576Z" fill="#2A306F"/>
</svg>
