<svg width="150" height="151" viewBox="0 0 150 151" fill="none" xmlns="http://www.w3.org/2000/svg">
<g clip-path="url(#clip0_70_2800)">
<path d="M137.913 133.688C137.913 127.706 126.999 110.987 126.999 110.987C126.999 110.987 115.92 127.706 115.92 133.688C115.92 139.658 120.846 144.5 126.918 144.5C132.987 144.5 137.913 139.658 137.913 133.688ZM58.998 40.013H37.005V18.332H43.002V6.5H3V18.332H9V51.842C9 60.554 16.164 67.613 24.999 67.613H58.998V73.529H71.001V34.103H58.998V40.013ZM140.994 89.297V55.787C140.994 47.078 133.833 40.016 125.007 40.016H91.002V34.106H78.999V73.535H91.002V67.616H112.998V89.297H107.007V101.129H147V89.297H140.994Z" stroke="#2A306F" stroke-width="7"/>
</g>
<defs>
<clipPath id="clip0_70_2800">
<rect width="150" height="150" fill="white" transform="translate(0 0.5)"/>
</clipPath>
</defs>
</svg>
