<svg width="150" height="151" viewBox="0 0 150 151" fill="none" xmlns="http://www.w3.org/2000/svg">
<path d="M13.1417 78.7326L7.01928 83.7326C5.82235 84.7101 5.82235 86.2901 7.01928 87.2676C7.61622 87.7551 8.39989 88.0001 9.18357 88.0001C9.96724 88.0001 10.7509 87.7551 11.3478 87.2676L17.4703 82.2676C18.6672 81.2901 18.6672 79.7101 17.4703 78.7326C16.2733 77.7551 14.3387 77.7551 13.1417 78.7326Z" fill="#2A306F"/>
<path d="M15.3061 73C15.3061 71.6175 13.9377 70.5 12.2449 70.5H3.06122C1.36836 70.5 0 71.6175 0 73C0 74.3825 1.36836 75.5 3.06122 75.5H12.2449C13.9377 75.5 15.3061 74.3825 15.3061 73Z" fill="#2A306F"/>
<path d="M10.9777 58.4299C9.7808 57.4524 7.8461 57.4524 6.64917 58.4299C5.45223 59.4074 5.45223 60.9874 6.64917 61.9649L13.142 67.2674C13.739 67.7549 14.5226 67.9999 15.3063 67.9999C16.09 67.9999 16.8736 67.7549 17.4706 67.2674C18.6675 66.2899 18.6675 64.7099 17.4706 63.7324L10.9777 58.4299Z" fill="#2A306F"/>
<path d="M109.729 96.145C114.045 90.015 116.326 82.875 116.326 75.5C116.326 68.125 114.045 60.985 109.729 54.8575C106.034 49.6075 104.081 43.7925 104.081 38.035V28H110.204C111.896 28 113.265 26.8825 113.265 25.5V10.5C113.265 9.1175 111.896 8 110.204 8H104.081V0.5H48.9793V8H42.8568C41.164 8 39.7956 9.1175 39.7956 10.5V25.5C39.7956 26.8825 41.164 28 42.8568 28H48.9793V38.0375C48.9793 43.795 47.0262 49.61 43.3313 54.8575C39.015 60.985 36.7344 68.125 36.7344 75.5C36.7344 82.875 39.015 90.015 43.3313 96.1425C47.0262 101.392 48.9793 107.207 48.9793 112.965V123H42.8568C41.164 123 39.7956 124.118 39.7956 125.5V140.5C39.7956 141.883 41.164 143 42.8568 143H48.9793V150.5H104.081V143H110.204C111.896 143 113.265 141.883 113.265 140.5V125.5C113.265 124.118 111.896 123 110.204 123H104.081V112.963C104.081 107.208 106.034 101.39 109.729 96.145ZM55.1017 5.5H97.9588V8H55.1017V5.5ZM45.918 23V13H48.9793H104.081H107.142V23H104.081H48.9793H45.918ZM97.9588 145.5H55.1017V143H97.9588V145.5ZM107.142 128V138H104.081H48.9793H45.918V128H48.9793H104.081H107.142ZM55.1017 123V112.963C55.1017 106.335 52.8701 99.655 48.6425 93.6475C44.8588 88.2775 42.8568 82.0025 42.8568 75.4975C42.8568 68.9925 44.8558 62.72 48.6425 57.345C52.8701 51.3425 55.1017 44.6625 55.1017 38.0325V28H97.9588V38.0375C97.9588 44.665 100.19 51.345 104.418 57.3525C108.202 62.7225 110.204 68.9975 110.204 75.5025C110.204 82.0075 108.205 88.28 104.418 93.655C100.19 99.6575 97.9588 106.338 97.9588 112.967V123H55.1017Z" fill="#2A306F"/>
<path d="M134.694 67.6974C135.477 67.6974 136.261 67.4524 136.858 66.9649L142.981 61.9649C144.177 60.9874 144.177 59.4074 142.981 58.4299C141.784 57.4524 139.849 57.4524 138.652 58.4299L132.53 63.4299C131.333 64.4074 131.333 65.9874 132.53 66.9649C133.126 67.4524 133.91 67.6974 134.694 67.6974Z" fill="#2A306F"/>
<path d="M146.939 70.5H137.755C136.062 70.5 134.694 71.6175 134.694 73C134.694 74.3825 136.062 75.5 137.755 75.5H146.939C148.632 75.5 150 74.3825 150 73C150 71.6175 148.632 70.5 146.939 70.5Z" fill="#2A306F"/>
<path d="M136.858 78.4299C135.661 77.4524 133.726 77.4524 132.53 78.4299C131.333 79.4074 131.333 80.9874 132.53 81.9649L139.022 87.2674C139.619 87.7549 140.403 87.9999 141.187 87.9999C141.97 87.9999 142.754 87.7549 143.351 87.2674C144.548 86.2899 144.548 84.7099 143.351 83.7324L136.858 78.4299Z" fill="#2A306F"/>
</svg>
