<svg width="150" height="150" viewBox="0 0 150 150" fill="none" xmlns="http://www.w3.org/2000/svg">
<g clip-path="url(#clip0_70_2752)">
<path d="M147.5 145.005H122.5V139.389C128.717 137.807 133.833 133.049 135.603 126.671L144.482 94.7021C147.652 93.827 150 90.9469 150 87.5017C150 83.3665 146.635 80.0013 142.5 80.0013V6.04011C142.5 3.59248 141.037 1.40237 138.775 0.464824C136.512 -0.467723 133.93 0.042303 132.198 1.77239L125.723 8.24772C120.078 3.9425 111.985 4.31002 106.827 9.46528C105.85 10.4428 105.85 12.0229 106.827 13.0005L124.505 30.6789C124.975 31.1489 125.61 31.4114 126.272 31.4114C126.935 31.4114 127.573 31.1489 128.04 30.6789C133.195 25.5211 133.562 17.4282 129.255 11.7829L135.73 5.30757C136.155 4.88255 136.622 4.98755 136.86 5.08256C137.1 5.18256 137.5 5.43757 137.5 6.04011V80.0013H60V75.0011H27.5V80.0013H7.5C3.365 80.0013 0 83.3665 0 87.5017C0 90.9469 2.3475 93.827 5.5175 94.7021L14.3975 126.671C16.1675 133.049 21.2825 137.807 27.5 139.389V145.005H2.5C1.12 145.005 0 146.122 0 147.505C0 148.887 1.12 150.005 2.5 150.005H30H37.5H112.5H120H147.5C148.88 150.005 150 148.887 150 147.505C150 146.122 148.88 145.005 147.5 145.005ZM126.035 25.1361L112.368 11.4704C115.96 9.42528 120.618 9.9403 123.678 12.998L124.505 13.8255C127.562 16.8882 128.073 21.5459 126.035 25.1361ZM142.5 85.0016C143.878 85.0016 145 86.1217 145 87.5017C145 88.8818 143.878 90.0018 142.5 90.0018H60V85.0016H142.5ZM55 80.0013V90.0018V95.0021V107.503H32.5V95.0021V90.0018V80.0013H55ZM32.5 112.503H55V117.503H32.5V112.503ZM7.5 85.0016H27.5V90.0018H7.5C6.1225 90.0018 5 88.8818 5 87.5017C5 86.1217 6.1225 85.0016 7.5 85.0016ZM19.215 125.334L10.79 95.0021H27.5V107.503V122.503H60V107.503V95.0021H139.213L130.788 125.334C129.205 131.026 123.973 135.004 118.065 135.004H107.5H42.5H31.935C26.0275 135.004 20.795 131.026 19.215 125.334ZM105.955 140.004L108.455 145.005H41.545L44.045 140.004H105.955ZM32.5 145.005V140.004H38.455L35.955 145.005H32.5ZM114.045 145.005L111.545 140.004H117.5V145.005H114.045Z" fill="#2A306F"/>
<path d="M117.5 34.9994C118.88 34.9994 120 33.8818 120 32.4993V29.9992C120 28.6166 118.88 27.499 117.5 27.499C116.12 27.499 115 28.6166 115 29.9992V32.4993C115 33.8793 116.12 34.9994 117.5 34.9994Z" fill="#2A306F"/>
<path d="M115 52.5007C115 53.8833 116.12 55.0009 117.5 55.0009C118.88 55.0009 120 53.8833 120 52.5007V50.0006C120 48.618 118.88 47.5005 117.5 47.5005C116.12 47.5005 115 48.618 115 50.0006V52.5007Z" fill="#2A306F"/>
<path d="M115 62.5003C115 63.8828 116.12 65.0004 117.5 65.0004C118.88 65.0004 120 63.8828 120 62.5003V60.0001C120 58.6176 118.88 57.5 117.5 57.5C116.12 57.5 115 58.6176 115 60.0001V62.5003Z" fill="#2A306F"/>
<path d="M115 72.5012C115 73.8838 116.12 75.0014 117.5 75.0014C118.88 75.0014 120 73.8838 120 72.5012V70.0011C120 68.6185 118.88 67.501 117.5 67.501C116.12 67.501 115 68.6185 115 70.0011V72.5012Z" fill="#2A306F"/>
<path d="M115 42.4988C115 43.8814 116.12 44.9989 117.5 44.9989C118.88 44.9989 120 43.8814 120 42.4988V39.9987C120 38.6161 118.88 37.4985 117.5 37.4985C116.12 37.4985 115 38.6161 115 39.9987V42.4988Z" fill="#2A306F"/>
<path d="M93.6598 31.3368C94.2998 31.3368 94.9398 31.0918 95.4273 30.6043L97.1948 28.8367C98.1723 27.8592 98.1723 26.2791 97.1948 25.3015C96.2173 24.324 94.6373 24.324 93.6598 25.3015L91.8923 27.0691C90.9148 28.0467 90.9148 29.6267 91.8923 30.6043C92.3823 31.0918 93.0198 31.3368 93.6598 31.3368Z" fill="#2A306F"/>
<path d="M86.5895 38.4096C87.2295 38.4096 87.8695 38.1646 88.357 37.677L90.1245 35.9095C91.102 34.9319 91.102 33.3518 90.1245 32.3743C89.147 31.3967 87.567 31.3967 86.5895 32.3743L84.822 34.1419C83.8445 35.1194 83.8445 36.6995 84.822 37.677C85.312 38.1646 85.9495 38.4096 86.5895 38.4096Z" fill="#2A306F"/>
<path d="M79.5202 45.4799C80.1602 45.4799 80.8002 45.2349 81.2877 44.7474L83.0552 42.9798C84.0327 42.0022 84.0327 40.4221 83.0552 39.4446C82.0777 38.467 80.4977 38.467 79.5202 39.4446L77.7527 41.2122C76.7752 42.1897 76.7752 43.7698 77.7527 44.7474C78.2402 45.2349 78.8802 45.4799 79.5202 45.4799Z" fill="#2A306F"/>
<path d="M100.733 24.2655C101.373 24.2655 102.013 24.0205 102.5 23.533L104.268 21.7654C105.245 20.7879 105.245 19.2078 104.268 18.2302C103.29 17.2527 101.71 17.2527 100.733 18.2302L98.9651 19.9978C97.9876 20.9754 97.9876 22.5555 98.9651 23.533C99.4526 24.0205 100.093 24.2655 100.733 24.2655Z" fill="#2A306F"/>
<path d="M65.3776 59.6225C66.0176 59.6225 66.6576 59.3775 67.1451 58.8899L68.9126 57.1223C69.8901 56.1448 69.8901 54.5647 68.9126 53.5872C67.9351 52.6096 66.3551 52.6096 65.3776 53.5872L63.6101 55.3548C62.6326 56.3323 62.6326 57.9124 63.6101 58.8899C64.0976 59.38 64.7376 59.6225 65.3776 59.6225Z" fill="#2A306F"/>
<path d="M51.235 73.7665C51.875 73.7665 52.515 73.5215 53.0025 73.034L54.77 71.2664C55.7475 70.2888 55.7475 68.7088 54.77 67.7312C53.7925 66.7537 52.2125 66.7537 51.235 67.7312L49.4675 69.4988C48.49 70.4763 48.49 72.0564 49.4675 73.034C49.955 73.5215 50.595 73.7665 51.235 73.7665Z" fill="#2A306F"/>
<path d="M72.4475 52.5502C73.0875 52.5502 73.7275 52.3052 74.215 51.8177L75.985 50.0501C76.9625 49.075 76.9625 47.4924 75.985 46.5149C75.0075 45.5374 73.425 45.5374 72.4475 46.5149L70.6775 48.2825C69.7 49.2575 69.7 50.8401 70.6775 51.8177C71.1675 52.3077 71.8075 52.5502 72.4475 52.5502Z" fill="#2A306F"/>
<path d="M58.3048 66.6928C58.9448 66.6928 59.5848 66.4478 60.0723 65.9602L61.8398 64.1927C62.8173 63.2151 62.8173 61.635 61.8398 60.6575C60.8623 59.6799 59.2823 59.6799 58.3048 60.6575L56.5373 62.4251C55.5598 63.4026 55.5598 64.9827 56.5373 65.9602C57.0273 66.4503 57.6648 66.6928 58.3048 66.6928Z" fill="#2A306F"/>
<path d="M97.8604 49.3527C98.2454 49.5677 98.6604 49.6677 99.0704 49.6677C99.9504 49.6677 100.8 49.2027 101.258 48.3801L102.47 46.195C103.143 44.99 102.705 43.4649 101.498 42.7974C100.29 42.1223 98.7704 42.5623 98.1004 43.7699L96.8879 45.955C96.2179 47.1601 96.6529 48.6826 97.8604 49.3527Z" fill="#2A306F"/>
<path d="M102.96 35.0238L101.745 37.2089C101.073 38.4165 101.508 39.9391 102.715 40.6091C103.1 40.8241 103.515 40.9241 103.928 40.9241C104.808 40.9241 105.658 40.4591 106.115 39.6391L107.33 37.4539C108.003 36.2464 107.568 34.7238 106.36 34.0538C105.153 33.3787 103.628 33.8188 102.96 35.0238Z" fill="#2A306F"/>
<path d="M107.57 31.8684C107.955 32.0834 108.37 32.1834 108.782 32.1834C109.662 32.1834 110.512 31.7184 110.97 30.8983L112.185 28.7132C112.857 27.5057 112.422 25.9831 111.215 25.3131C110.007 24.638 108.485 25.078 107.815 26.2831L106.6 28.4682C105.93 29.6758 106.362 31.1959 107.57 31.8684Z" fill="#2A306F"/>
<path d="M91.5456 65.863L92.7581 63.6779C93.4306 62.4729 92.9931 60.9478 91.7856 60.2803C90.5756 59.6052 89.0556 60.0452 88.3881 61.2528L87.1756 63.4379C86.5031 64.643 86.9406 66.1681 88.1481 66.8356C88.5331 67.0506 88.9481 67.1506 89.3581 67.1506C90.2381 67.1506 91.0906 66.6881 91.5456 65.863Z" fill="#2A306F"/>
<path d="M96.4022 57.1251L97.6172 54.94C98.2897 53.7324 97.8547 52.2098 96.6472 51.5398C95.4422 50.8622 93.9172 51.3023 93.2472 52.5098L92.0322 54.6949C91.3597 55.9025 91.7947 57.4251 93.0022 58.0951C93.3872 58.3101 93.8022 58.4101 94.2147 58.4101C95.0922 58.4101 95.9447 57.9451 96.4022 57.1251Z" fill="#2A306F"/>
<path d="M86.9324 69.0229C85.7249 68.3479 84.2024 68.7879 83.5324 69.9955L82.8149 71.2881C82.1424 72.4931 82.5774 74.0157 83.7849 74.6857C84.1699 74.9007 84.5874 75.0007 84.9974 75.0007C85.8774 75.0007 86.7274 74.5357 87.1849 73.7132L87.9024 72.4206C88.5749 71.2155 88.1399 69.6955 86.9324 69.0229Z" fill="#2A306F"/>
</g>
<defs>
<clipPath id="clip0_70_2752">
<rect width="150" height="150" fill="white"/>
</clipPath>
</defs>
</svg>
